<?xml version="1.0" standalone="no"?>
<!DOCTYPE svg PUBLIC "-//W3C//DTD SVG 20010904//EN"
 "http://www.w3.org/TR/2001/REC-SVG-20010904/DTD/svg10.dtd">
<svg version="1.0" xmlns="http://www.w3.org/2000/svg"
 width="512.000000pt" height="512.000000pt" viewBox="0 0 512.000000 512.000000"
 preserveAspectRatio="xMidYMid meet">

<g transform="translate(0.000000,512.000000) scale(0.100000,-0.100000)"
fill="#000000" stroke="none">
<path d="M2485 5113 c-314 -84 -1738 -498 -1771 -515 -67 -33 -138 -108 -176
-185 l-33 -67 -3 -271 c-3 -250 -2 -273 15 -294 27 -33 80 -32 110 3 23 27 23
30 23 263 0 152 4 250 12 275 13 45 77 122 118 143 46 24 1742 505 1780 505
46 0 1746 -486 1785 -510 45 -28 81 -70 104 -120 20 -44 21 -60 21 -1087 0
-1116 -1 -1152 -52 -1368 -163 -701 -709 -1309 -1447 -1610 -184 -75 -338
-119 -411 -119 -102 1 -332 77 -555 183 -626 298 -1104 836 -1274 1436 -78
273 -81 312 -81 1074 0 641 0 649 -21 675 -26 33 -79 36 -109 6 -20 -20 -20
-33 -20 -684 0 -738 4 -800 65 -1041 198 -786 836 -1440 1685 -1728 265 -90
321 -94 525 -32 897 274 1574 943 1780 1760 66 258 66 270 63 1465 l-3 1075
-33 68 c-41 82 -109 153 -183 188 -29 15 -436 136 -904 269 -856 245 -935 264
-1010 243z"/>
<path d="M1749 4561 c-416 -120 -770 -223 -788 -231 -42 -17 -105 -89 -119
-138 -9 -29 -12 -295 -12 -1010 0 -1052 2 -1091 55 -1297 63 -242 185 -494
332 -688 65 -86 172 -206 200 -224 27 -18 65 -11 93 17 36 36 25 63 -62 165
-236 275 -371 542 -440 870 l-23 110 -3 997 c-2 884 -1 1001 13 1027 18 36
-61 11 853 272 l712 203 748 -213 c411 -117 761 -220 779 -228 17 -8 36 -27
43 -42 8 -20 10 -290 7 -1017 -4 -1071 -2 -1031 -61 -1245 -170 -624 -709
-1149 -1406 -1370 l-103 -33 -63 17 c-185 48 -455 173 -641 296 -136 90 -168
99 -202 55 -44 -56 -28 -84 96 -166 212 -141 392 -229 621 -304 171 -57 198
-57 371 2 854 290 1432 948 1531 1744 15 124 14 2010 -2 2061 -13 47 -68 113
-110 135 -17 9 -376 115 -797 235 -571 163 -779 219 -816 218 -33 -1 -310 -76
-806 -218z"/>
<path d="M2300 3942 c-43 -21 -73 -65 -100 -146 -20 -60 -23 -64 -63 -76 -23
-7 -63 -23 -89 -36 l-46 -23 -75 34 c-86 40 -131 44 -185 16 -45 -24 -314
-294 -336 -338 -24 -49 -19 -97 19 -180 l34 -75 -23 -46 c-13 -26 -29 -66 -36
-89 -12 -40 -16 -43 -76 -63 -81 -27 -125 -57 -146 -100 -16 -30 -18 -66 -18
-260 0 -194 2 -230 18 -260 21 -43 65 -73 146 -100 60 -20 64 -23 76 -63 7
-23 23 -63 36 -89 l23 -46 -34 -75 c-38 -83 -43 -131 -20 -181 20 -42 312
-331 348 -345 49 -19 96 -12 174 24 l75 34 46 -23 c26 -13 66 -29 89 -36 40
-12 43 -16 63 -76 27 -81 57 -125 100 -146 30 -16 66 -18 260 -18 194 0 230 2
260 18 43 21 73 65 100 146 20 60 23 64 63 76 23 7 64 23 90 37 l48 24 71 -36
c81 -40 130 -45 186 -16 45 24 314 294 336 338 24 49 19 97 -19 180 l-34 75
23 46 c13 26 29 66 36 89 12 40 16 43 76 63 81 27 125 57 146 100 16 30 18 66
18 260 0 194 -2 230 -18 260 -21 43 -65 73 -146 100 -60 20 -64 23 -76 63 -7
23 -23 63 -36 89 l-23 46 34 75 c40 86 44 131 16 185 -25 47 -307 327 -344
341 -50 19 -97 12 -173 -24 l-74 -36 -47 25 c-27 13 -67 29 -90 36 -40 12 -43
16 -63 76 -27 81 -57 125 -100 146 -30 16 -66 18 -260 18 -194 0 -230 -2 -260
-18z m479 -202 c26 -82 55 -120 108 -143 21 -9 75 -32 121 -51 46 -20 99 -36
118 -36 19 0 68 15 108 34 l74 34 135 -137 135 -136 -34 -70 c-43 -88 -43
-126 0 -223 18 -43 38 -93 45 -113 17 -52 67 -94 146 -122 l70 -25 0 -192 0
-192 -70 -25 c-79 -28 -129 -70 -146 -122 -7 -20 -27 -70 -45 -113 -43 -97
-43 -135 0 -223 l34 -70 -135 -136 -135 -137 -74 34 c-40 19 -89 34 -108 34
-19 0 -70 -15 -113 -34 -43 -18 -95 -40 -117 -47 -53 -19 -91 -66 -117 -149
l-23 -70 -196 0 -196 0 -23 70 c-26 82 -55 120 -108 143 -21 9 -75 32 -121 51
-46 20 -99 36 -118 36 -20 0 -65 -15 -106 -36 l-71 -36 -139 140 -140 139 36
71 c21 41 36 86 36 106 0 19 -16 72 -36 118 -19 46 -42 100 -51 121 -23 53
-61 82 -143 108 l-70 23 0 196 0 196 70 23 c82 26 120 55 143 108 9 21 32 75
51 121 20 46 36 99 36 118 0 20 -15 65 -36 106 l-36 71 140 139 139 140 71
-36 c41 -21 86 -36 106 -36 19 0 72 16 118 36 46 19 100 42 121 51 53 23 82
61 108 143 l23 70 196 0 196 0 23 -70z"/>
<path d="M2380 3445 c-303 -62 -563 -286 -667 -573 -88 -241 -68 -521 53 -741
162 -295 458 -471 794 -471 292 0 546 128 727 365 203 266 231 666 67 964
-132 240 -357 405 -622 457 -90 17 -264 17 -352 -1z m395 -165 c249 -79 428
-260 507 -510 19 -63 23 -96 23 -210 0 -114 -4 -147 -23 -210 -79 -253 -259
-432 -512 -512 -63 -19 -96 -23 -210 -23 -114 0 -147 4 -210 23 -317 99 -522
361 -537 687 -10 224 60 407 218 564 107 108 225 173 373 207 91 20 281 12
371 -16z"/>
<path d="M2402 3113 c-18 -9 -44 -35 -57 -58 -22 -37 -25 -53 -25 -148 l0
-107 -107 0 c-95 0 -111 -3 -148 -25 -63 -37 -75 -70 -75 -215 0 -145 12 -178
75 -215 37 -22 53 -25 148 -25 l107 0 0 -106 c0 -89 3 -112 21 -143 39 -68 58
-76 206 -79 149 -4 182 5 224 61 22 29 24 44 27 150 l4 117 105 0 c95 0 111 3
148 25 63 37 75 70 75 215 0 145 -12 178 -75 215 -37 22 -53 25 -148 25 l-105
0 -4 118 c-3 132 -17 165 -82 196 -48 23 -267 23 -314 -1z m248 -249 c0 -192
22 -214 214 -214 l116 0 0 -90 0 -90 -116 0 c-192 0 -214 -22 -214 -214 l0
-116 -90 0 -90 0 0 116 c0 192 -22 214 -214 214 l-116 0 0 90 0 90 116 0 c192
0 214 22 214 214 l0 116 90 0 90 0 0 -116z"/>
</g>
</svg>
